<svg xmlns="http://www.w3.org/2000/svg" width="24" height="24" viewBox="0 0 24 24">
    <defs>
        <style>
            .cls-2{fill:#fff}
        </style>
    </defs>
    <g id="그룹_2762" data-name="그룹 2762" transform="translate(-108 -96)">
        <rect id="사각형_1836" data-name="사각형 1836" width="24" height="24" rx="4" transform="translate(108 96)" style="fill:#e3e3e3"/>
        <g id="그룹_2763" data-name="그룹 2763" transform="translate(132.176 -26.317)">
            <path id="Path" class="cls-2" d="M0 1.626h9.756V0H0z" transform="translate(-13.659 133.504)"/>
            <path id="_Color" data-name="↳Color" class="cls-2" d="M.881 0 0 .882l2.862 2.873L0 6.627l.881.882 3.75-3.755z" transform="translate(-6.982 130.562)"/>
            <path id="_Color-2" data-name="↳Color" class="cls-2" d="M9.873 14.634H1.519A1.577 1.577 0 0 1 0 13.008V1.627A1.578 1.578 0 0 1 1.519 0h8.354a1.577 1.577 0 0 1 1.519 1.627v2.438H9.873V1.627H1.519v11.381h8.354v-2.439h1.519v2.439a1.577 1.577 0 0 1-1.519 1.626z" transform="translate(-20 127)"/>
        </g>
    </g>
</svg>
