<svg xmlns="http://www.w3.org/2000/svg" width="24" height="27" viewBox="0 0 24 27">
    <defs>
        <style>
            .cls-1{fill:#e3e3e3}
        </style>
    </defs>
    <g id="Group_2779" data-name="Group 2779" transform="translate(-147 -216)">
        <path id="Subtraction_2" data-name="Subtraction 2" class="cls-1" d="M10.644 2.682H3.891a4 4 0 0 1-4-4v-.158A3.989 3.989 0 0 0 3.443.682h7.2v2z" transform="translate(147.109 240.318)"/>
        <path id="Subtraction_3" data-name="Subtraction 3" class="cls-1" d="M9.139 2.682H-.109v-2h9.8a4.019 4.019 0 0 0 3.448-1.972 4.011 4.011 0 0 1-4 3.972z" transform="translate(157.862 240.318)"/>
        <path id="Union_6" data-name="Union 6" class="cls-1" d="M4 0h16a4 4 0 0 1 4 4v16a4 4 0 0 1-4 4H4a4 4 0 0 1-4-4V4a4 4 0 0 1 4-4z" transform="translate(147 216)"/>
        <g id="Group_2777" data-name="Group 2777" transform="rotate(-90 38 402)">
            <path id="Path_971" data-name="Path 971" d="M5.836 0 0 5.836l5.836 5.836" transform="rotate(180 107.418 264.336)" style="fill:none;stroke:#fff;stroke-width:1.7px"/>
        </g>
    </g>
</svg>
