<svg xmlns="http://www.w3.org/2000/svg" width="18" height="18">
    <path data-name="↳Color" d="M9.4 15.6H6.2a.4.4 0 0 1-.4-.331l-.3-2.067a5.9 5.9 0 0 1-1.354-.761l-2 .78a.45.45 0 0 1-.146.022.4.4 0 0 1-.352-.2l-1.605-2.7a.4.4 0 0 1 .1-.5l1.7-1.282a4.807 4.807 0 0 1-.06-.761 4.72 4.72 0 0 1 .07-.761L.158 5.753a.371.371 0 0 1-.1-.5l1.6-2.7a.4.4 0 0 1 .491-.176l2 .78A6.091 6.091 0 0 1 5.5 2.4L5.8.331A.387.387 0 0 1 6.2 0h3.2a.4.4 0 0 1 .4.331l.3 2.067a5.924 5.924 0 0 1 1.354.761l2-.78a.45.45 0 0 1 .139-.022.4.4 0 0 1 .352.2l1.605 2.7a.4.4 0 0 1-.1.5L13.757 7.04a4.726 4.726 0 0 1 .06.761 6.188 6.188 0 0 1-.05.761l1.675 1.287a.371.371 0 0 1 .1.5l-1.6 2.7a.4.4 0 0 1-.491.176l-2-.78a6.034 6.034 0 0 1-1.351.755l-.3 2.067a.377.377 0 0 1-.4.333zM7.8 4.875A2.971 2.971 0 0 0 4.791 7.8a3.01 3.01 0 0 0 6.017 0A2.971 2.971 0 0 0 7.8 4.875z" transform="translate(1.2 1.2)" style="fill:#e5e5e5"/>
    <path data-name="사각형 1797" style="fill:none" d="M0 0h18v18H0z"/>
</svg>
