<svg xmlns="http://www.w3.org/2000/svg" width="83.962" height="23.389">
    <g data-name="그룹 2467">
        <g data-name="그룹 2466">
            <path data-name="패스 925" d="M.85 0h6.2a3.906 3.906 0 0 1 2.584.725 2.571 2.571 0 0 1 .851 2.069 2.45 2.45 0 0 1-.437 1.524 2.518 2.518 0 0 1-1.188.834v.032a2.758 2.758 0 0 1 1.555.905 2.812 2.812 0 0 1 .554 1.842 3.326 3.326 0 0 1-.219 1.188 3.033 3.033 0 0 1-.656 1.038 3.03 3.03 0 0 1-1.108.727 4.2 4.2 0 0 1-1.546.265H.85zm6.169 4.608A1.889 1.889 0 0 0 8.37 4.17a1.484 1.484 0 0 0 .46-1.125 1.529 1.529 0 0 0-.46-1.194 2.123 2.123 0 0 0-1.446-.413H2.505v3.17zm-.032 5.105a3.45 3.45 0 0 0 1.125-.156 1.823 1.823 0 0 0 .719-.421 1.481 1.481 0 0 0 .374-.6 2.266 2.266 0 0 0 .11-.71 2.04 2.04 0 0 0-.11-.664 1.4 1.4 0 0 0-.367-.569 1.825 1.825 0 0 0-.678-.4 3.1 3.1 0 0 0-1.031-.149H2.506v3.67z"/>
            <path data-name="패스 926" d="M13.062 0h6.9a3.556 3.556 0 0 1 1.39.25 2.45 2.45 0 0 1 .953.68 2.865 2.865 0 0 1 .532.953 3.466 3.466 0 0 1 .172 1.084 3.031 3.031 0 0 1-.484 1.735 2.582 2.582 0 0 1-1.39 1.014v.032a1.623 1.623 0 0 1 1.155.741 3.185 3.185 0 0 1 .469 1.633c.031.593.056 1.047.078 1.357a7.683 7.683 0 0 0 .085.782 2.4 2.4 0 0 0 .141.515 1.529 1.529 0 0 0 .226.375h-1.748a1.018 1.018 0 0 1-.219-.532 20.02 20.02 0 0 1-.124-1.592 3.4 3.4 0 0 0-.586-2.03 1.98 1.98 0 0 0-1.57-.578h-4.325v4.732h-1.655zm6.278 4.981a2.654 2.654 0 0 0 .975-.156 1.584 1.584 0 0 0 .625-.413 1.511 1.511 0 0 0 .32-.562 2.138 2.138 0 0 0 .093-.634 1.716 1.716 0 0 0-.5-1.3 2.049 2.049 0 0 0-1.468-.476h-4.669v3.544z"/>
            <path data-name="패스 927" d="M32.251 7.902h-5.466l-1.422 3.248h-1.78L28.627 0h1.889l5.044 11.15h-1.889zm-2.749-6.371-2.093 4.934h4.232z"/>
            <path data-name="패스 928" d="M38.454 2.28h-.031v8.87h-1.655V0h1.92l7.168 8.87h.032V0h1.655v11.15h-1.922z"/>
            <path data-name="패스 929" d="M50.011 0h5.652a4.5 4.5 0 0 1 3.654 1.453 5.982 5.982 0 0 1 1.218 3.967 8.708 8.708 0 0 1-.274 2.232 5.376 5.376 0 0 1-.851 1.82 3.978 3.978 0 0 1-1.49 1.233 4.888 4.888 0 0 1-2.164.445H50.01zm5.668 9.713a3.2 3.2 0 0 0 1.609-.367 2.57 2.57 0 0 0 .984-.975 4.247 4.247 0 0 0 .478-1.344 8.88 8.88 0 0 0 .132-1.577 7.018 7.018 0 0 0-.156-1.515 3.631 3.631 0 0 0-.547-1.272 2.645 2.645 0 0 0-1.086-.9 4.018 4.018 0 0 0-1.724-.328h-3.7v8.276z"/>
            <path data-name="패스 930" d="M62.442 0h8.964v1.437h-7.309v3.234h7.09v1.437h-7.09v3.607h7.465v1.437h-9.12z"/>
            <path data-name="패스 931" d="M73.441 0h5.653a4.5 4.5 0 0 1 3.654 1.453 5.982 5.982 0 0 1 1.218 3.967 8.711 8.711 0 0 1-.274 2.232 5.373 5.373 0 0 1-.851 1.819 3.977 3.977 0 0 1-1.49 1.233 4.888 4.888 0 0 1-2.165.445h-5.745zm5.668 9.713a3.2 3.2 0 0 0 1.609-.367 2.572 2.572 0 0 0 .984-.975 4.25 4.25 0 0 0 .477-1.344 8.88 8.88 0 0 0 .132-1.577 7.018 7.018 0 0 0-.156-1.515 3.631 3.631 0 0 0-.547-1.272 2.645 2.645 0 0 0-1.086-.9 4.019 4.019 0 0 0-1.724-.328h-3.7v8.276z"/>
        </g>
        <path data-name="패스 932" d="M7.741 17.697a2.5 2.5 0 0 0-.9-1.575 3.07 3.07 0 0 0-2.024-.618 3.251 3.251 0 0 0-2.432.893 3.572 3.572 0 0 0-.875 2.606 4.083 4.083 0 0 0 .18 1.216 2.994 2.994 0 0 0 .568 1.048 2.726 2.726 0 0 0 1.013.743 3.613 3.613 0 0 0 1.473.276 3.15 3.15 0 0 0 1.954-.588 2.921 2.921 0 0 0 1.042-1.8h1.271a3.634 3.634 0 0 1-.408 1.341 3.838 3.838 0 0 1-.9 1.121 4.128 4.128 0 0 1-1.318.755 4.877 4.877 0 0 1-1.654.269 5.548 5.548 0 0 1-1.648-.245 4.04 4.04 0 0 1-1.438-.791A3.858 3.858 0 0 1 .62 20.935a5.1 5.1 0 0 1-.383-2.068 5.164 5.164 0 0 1 .293-1.761 4.06 4.06 0 0 1 .863-1.42 3.934 3.934 0 0 1 1.414-.948 5.083 5.083 0 0 1 1.911-.342 6.339 6.339 0 0 1 1.408.163 4.439 4.439 0 0 1 1.343.545 3.276 3.276 0 0 1 1.048 1.03 3.308 3.308 0 0 1 .491 1.558z"/>
        <path data-name="패스 933" d="M10.275 17.236a4.117 4.117 0 0 1 .845-1.438 4.034 4.034 0 0 1 1.493-1.018 5.618 5.618 0 0 1 2.151-.378 5.615 5.615 0 0 1 2.15.378 4.034 4.034 0 0 1 1.493 1.018 4.121 4.121 0 0 1 .845 1.438 5.14 5.14 0 0 1 .27 1.659 5.142 5.142 0 0 1-.27 1.661 4.121 4.121 0 0 1-.845 1.438 4.034 4.034 0 0 1-1.493 1.018 5.616 5.616 0 0 1-2.15.377 5.618 5.618 0 0 1-2.151-.377 4.034 4.034 0 0 1-1.493-1.018 4.117 4.117 0 0 1-.845-1.438 5.145 5.145 0 0 1-.27-1.661 5.143 5.143 0 0 1 .27-1.659zm7-.856a3.619 3.619 0 0 0-2.509-.875 3.62 3.62 0 0 0-2.511.875 3.2 3.2 0 0 0-.976 2.516 3.2 3.2 0 0 0 .976 2.511 3.6 3.6 0 0 0 2.511.881 3.6 3.6 0 0 0 2.509-.881 3.2 3.2 0 0 0 .976-2.511 3.2 3.2 0 0 0-.979-2.513z"/>
        <path data-name="패스 934" d="M29.502 14.618h1.762v8.555h-1.271v-7.094h-.023l-3.331 7.094h-1.126l-3.319-6.949h-.025v6.949h-1.27v-8.555h1.785l3.392 7.094z"/>
        <path data-name="패스 935" d="M41.713 14.618h1.761v8.555h-1.271v-7.094h-.023l-3.331 7.094h-1.126l-3.319-6.949h-.025v6.949h-1.27v-8.555h1.785l3.392 7.094z"/>
        <path data-name="패스 936" d="M45.293 14.618h1.271v5.48a1.969 1.969 0 0 0 .688 1.653 3.029 3.029 0 0 0 1.911.54 3.033 3.033 0 0 0 1.912-.54 1.969 1.969 0 0 0 .688-1.653v-5.48h1.27v5.32q0 3.451-3.87 3.451t-3.87-3.451z"/>
        <path data-name="패스 937" d="M56.197 16.367h-.023v6.806h-1.27v-8.555h1.473l5.5 6.806h.025v-6.806h1.27v8.555h-1.474z"/>
        <path data-name="패스 938" d="M65.174 14.618h1.27v8.555h-1.27z"/>
        <path data-name="패스 939" d="M70.721 15.721h-3.236v-1.1h7.741v1.1H71.99v7.452h-1.27z"/>
        <path data-name="패스 940" d="M82.415 14.618h1.546l-3.775 4.973v3.582h-1.27v-3.522l-3.75-5.033h1.618l2.791 3.894z"/>
    </g>
    <path data-name="사각형 1640" transform="translate(0 .011)" style="fill:none" d="M0 0h83.614v23.093H0z"/>
</svg>
