<svg xmlns="http://www.w3.org/2000/svg" width="32" height="32" viewBox="0 0 32 32">
    <g data-name="Group 2768">
        <path data-name="Rectangle 1839" style="fill:none" d="M0 0h32v32H0z"/>
        <g data-name="Group 2767">
            <g data-name="Group 2765">
                <path data-name="Path 1015" d="M22.439 17.055a3.761 3.761 0 0 0-1.035.595l-2.549 1.9v2.761l2.514-1.871a5.846 5.846 0 0 0 1.049-.963 2.818 2.818 0 0 0 .681-1.8q-.002-.81-.66-.622z"/>
                <path data-name="Path 1016" d="M22.467 14.887a2.019 2.019 0 0 0 .421-1.223q0-.724-.556-.542a6.04 6.04 0 0 0-1.224.749l-2.253 1.676v2.284l2.517-1.873a5.212 5.212 0 0 0 1.095-1.071z"/>
            </g>
            <path data-name="Path 1017" d="M23.43 2.114a7.631 7.631 0 0 0-5.909 1.1L7.905 9.982a1.62 1.62 0 0 0-.728 1.319v4.5a12.973 12.973 0 0 0 2.262-.162l.053-3.4a1.956 1.956 0 0 1 .849-1.556l8.473-6.178a4.545 4.545 0 0 1 3.853-.618 1.119 1.119 0 0 1 .534 2.008l-8.258 6.051a2.178 2.178 0 0 0-.941 1.735l-.125 15.557c-.006.686.964 1.079 1.58.641l10.047-7.509a3.037 3.037 0 0 0 1.35-2.437l.136-13.989a4.15 4.15 0 0 0-3.56-3.83zm1.394 16.076a7.955 7.955 0 0 1-.734 1.361 8.1 8.1 0 0 1-1.17 1.391 15.836 15.836 0 0 1-1.463 1.229l-4.667 3.472V15.286l5.005-3.724q1.894-1.381 2.684-.894a1.36 1.36 0 0 1 .475 1.227 4.081 4.081 0 0 1-.48 1.882 7.311 7.311 0 0 1-.79 1.178 1.184 1.184 0 0 1 1.2.023 1.5 1.5 0 0 1 .4 1.218 5.084 5.084 0 0 1-.46 1.994z"/>
            <g data-name="Group 2766">
                <path data-name="Path 1018" d="m9.378 21.429.048-4.793a12.978 12.978 0 0 1-2.252.161v4.785a13.073 13.073 0 0 0 2.204-.153z"/>
                <path data-name="Path 1019" d="M7.171 22.575v4.544a1.039 1.039 0 0 0 1.09.933.979.979 0 0 0 1.081-.871l.028-4.757a13.088 13.088 0 0 1-2.199.151z"/>
            </g>
            <path data-name="Path 1020" d="m4.598 16.528 1.878 2.59-1.875 2.32c5 .715 6.984-.66 6.984-.66v-4.91s-1.98 1.375-6.987.66z"/>
        </g>
    </g>
</svg>
