<svg xmlns="http://www.w3.org/2000/svg" width="122" height="32" viewBox="0 0 122 32">
    <g data-name="그룹 2768">
        <path data-name="사각형 1839" style="fill:none" d="M0 0h122v32H0z"/>
        <g data-name="그룹 2767">
            <g data-name="그룹 2765">
                <path data-name="패스 1015" d="M22.439 17.055a3.761 3.761 0 0 0-1.035.595l-2.549 1.9v2.761l2.514-1.871a5.846 5.846 0 0 0 1.049-.963 2.818 2.818 0 0 0 .681-1.8q-.002-.81-.66-.622z"/>
                <path data-name="패스 1016" d="M22.467 14.887a2.019 2.019 0 0 0 .421-1.223q0-.724-.556-.542a6.04 6.04 0 0 0-1.224.749l-2.253 1.676v2.284l2.517-1.873a5.212 5.212 0 0 0 1.095-1.071z"/>
            </g>
            <path data-name="패스 1017" d="M23.43 2.114a7.631 7.631 0 0 0-5.909 1.1L7.905 9.982a1.62 1.62 0 0 0-.728 1.319v4.5a12.973 12.973 0 0 0 2.262-.162l.053-3.4a1.956 1.956 0 0 1 .849-1.556l8.473-6.178a4.545 4.545 0 0 1 3.853-.618 1.119 1.119 0 0 1 .534 2.008l-8.258 6.051a2.178 2.178 0 0 0-.941 1.735l-.125 15.557c-.006.686.964 1.079 1.58.641l10.047-7.509a3.037 3.037 0 0 0 1.35-2.437l.136-13.989a4.15 4.15 0 0 0-3.56-3.83zm1.394 16.076a7.955 7.955 0 0 1-.734 1.361 8.1 8.1 0 0 1-1.17 1.391 15.836 15.836 0 0 1-1.463 1.229l-4.667 3.472V15.286l5.005-3.724q1.894-1.381 2.684-.894a1.36 1.36 0 0 1 .475 1.227 4.081 4.081 0 0 1-.48 1.882 7.311 7.311 0 0 1-.79 1.178 1.184 1.184 0 0 1 1.2.023 1.5 1.5 0 0 1 .4 1.218 5.084 5.084 0 0 1-.46 1.994z"/>
            <g data-name="그룹 2766">
                <path data-name="패스 1018" d="m9.378 21.429.048-4.793a12.978 12.978 0 0 1-2.252.161v4.785a13.073 13.073 0 0 0 2.204-.153z"/>
                <path data-name="패스 1019" d="M7.171 22.575v4.544a1.039 1.039 0 0 0 1.09.933.979.979 0 0 0 1.081-.871l.028-4.757a13.088 13.088 0 0 1-2.199.151z"/>
            </g>
            <path data-name="패스 1020" d="m4.598 16.528 1.878 2.59-1.875 2.32c5 .715 6.984-.66 6.984-.66v-4.91s-1.98 1.375-6.987.66z"/>
        </g>
        <g data-name="그룹 2774">
            <g data-name="그룹 2771">
                <g data-name="그룹 2770">
                    <path data-name="패스 1021" d="M34.035 5.304h5.031a3.168 3.168 0 0 1 2.1.589 2.085 2.085 0 0 1 .691 1.679 1.989 1.989 0 0 1-.354 1.237 2.042 2.042 0 0 1-.964.677v.026a2.24 2.24 0 0 1 1.261.735 2.282 2.282 0 0 1 .45 1.494 2.7 2.7 0 0 1-.178.964 2.462 2.462 0 0 1-.532.842 2.463 2.463 0 0 1-.9.59 3.4 3.4 0 0 1-1.254.215h-5.348zm5.006 3.739a1.534 1.534 0 0 0 1.1-.356 1.205 1.205 0 0 0 .374-.913 1.241 1.241 0 0 0-.374-.969 1.724 1.724 0 0 0-1.173-.335h-3.586v2.573zm-.027 4.143a2.8 2.8 0 0 0 .913-.127 1.483 1.483 0 0 0 .583-.342 1.2 1.2 0 0 0 .3-.488 1.834 1.834 0 0 0 .09-.576 1.647 1.647 0 0 0-.09-.539 1.139 1.139 0 0 0-.3-.462 1.482 1.482 0 0 0-.55-.322 2.5 2.5 0 0 0-.837-.122h-3.752v2.978z"/>
                    <path data-name="패스 1022" d="M43.945 5.304h5.6a2.885 2.885 0 0 1 1.128.2 1.987 1.987 0 0 1 .774.551 2.342 2.342 0 0 1 .432.773 2.827 2.827 0 0 1 .139.88 2.46 2.46 0 0 1-.393 1.408 2.094 2.094 0 0 1-1.128.823v.026a1.318 1.318 0 0 1 .938.6 2.587 2.587 0 0 1 .381 1.325c.025.481.045.849.063 1.1a6.163 6.163 0 0 0 .069.634 1.957 1.957 0 0 0 .114.418 1.242 1.242 0 0 0 .183.3h-1.418a.823.823 0 0 1-.178-.432 16.239 16.239 0 0 1-.1-1.291 2.757 2.757 0 0 0-.476-1.648 1.607 1.607 0 0 0-1.274-.469h-3.51v3.84h-1.343zm5.094 4.042a2.154 2.154 0 0 0 .791-.127 1.284 1.284 0 0 0 .508-.335 1.229 1.229 0 0 0 .259-.456 1.733 1.733 0 0 0 .076-.514 1.392 1.392 0 0 0-.405-1.057 1.661 1.661 0 0 0-1.191-.386h-3.788v2.876z"/>
                    <path data-name="패스 1023" d="M59.52 11.716h-4.435l-1.154 2.636h-1.445l4.093-9.048h1.533l4.094 9.048h-1.533zm-2.231-5.17-1.7 4h3.434z"/>
                    <path data-name="패스 1024" d="M64.552 7.154h-.025v7.2h-1.343V5.306h1.558l5.817 7.2h.026v-7.2h1.343v9.048h-1.559z"/>
                    <path data-name="패스 1025" d="M73.929 5.304h4.587a3.651 3.651 0 0 1 2.966 1.179 4.854 4.854 0 0 1 .989 3.219 7.068 7.068 0 0 1-.222 1.812 4.358 4.358 0 0 1-.691 1.477 3.226 3.226 0 0 1-1.209 1 3.966 3.966 0 0 1-1.756.361H73.93zm4.6 7.882a2.6 2.6 0 0 0 1.306-.3 2.087 2.087 0 0 0 .8-.791 3.446 3.446 0 0 0 .388-1.09 7.193 7.193 0 0 0 .107-1.279 5.679 5.679 0 0 0-.127-1.23 2.94 2.94 0 0 0-.444-1.033 2.147 2.147 0 0 0-.881-.728 3.26 3.26 0 0 0-1.4-.266h-3v6.716z"/>
                    <path data-name="패스 1026" d="M84.017 5.304h7.274V6.47H85.36v2.622h5.753v1.167H85.36v2.927h6.058v1.166h-7.4z"/>
                    <path data-name="패스 1027" d="M92.939 5.304h4.587a3.651 3.651 0 0 1 2.966 1.179 4.852 4.852 0 0 1 .989 3.219 7.068 7.068 0 0 1-.222 1.812 4.358 4.358 0 0 1-.691 1.477 3.226 3.226 0 0 1-1.209 1 3.966 3.966 0 0 1-1.757.361h-4.663zm4.6 7.882a2.6 2.6 0 0 0 1.306-.3 2.082 2.082 0 0 0 .8-.791 3.446 3.446 0 0 0 .388-1.09 7.216 7.216 0 0 0 .107-1.279 5.7 5.7 0 0 0-.127-1.23 2.936 2.936 0 0 0-.444-1.033 2.15 2.15 0 0 0-.881-.728 3.262 3.262 0 0 0-1.4-.266h-3v6.716z"/>
                </g>
            </g>
            <g data-name="그룹 2772">
                <path data-name="패스 1028" d="M34 17.413h5.035a3.173 3.173 0 0 1 2.1.59 2.087 2.087 0 0 1 .691 1.68 1.981 1.981 0 0 1-.355 1.237 2.036 2.036 0 0 1-.964.678v.025a2.239 2.239 0 0 1 1.262.736 2.282 2.282 0 0 1 .45 1.5 2.7 2.7 0 0 1-.178.964 2.489 2.489 0 0 1-.533.843 2.46 2.46 0 0 1-.9.59 3.386 3.386 0 0 1-1.255.216h-5.352zm5.009 3.741a1.537 1.537 0 0 0 1.1-.355 1.2 1.2 0 0 0 .374-.913 1.238 1.238 0 0 0-.374-.97 1.721 1.721 0 0 0-1.173-.336h-3.589v2.574zm-.026 4.147a2.83 2.83 0 0 0 .913-.127 1.5 1.5 0 0 0 .583-.343 1.225 1.225 0 0 0 .3-.488 1.861 1.861 0 0 0 .089-.577 1.667 1.667 0 0 0-.089-.539 1.164 1.164 0 0 0-.3-.463 1.5 1.5 0 0 0-.552-.324 2.546 2.546 0 0 0-.837-.12h-3.754v2.98z"/>
                <path data-name="패스 1029" d="M43.917 17.413h5.605a2.9 2.9 0 0 1 1.129.2 2 2 0 0 1 .773.552 2.326 2.326 0 0 1 .431.773 2.813 2.813 0 0 1 .139.881 2.46 2.46 0 0 1-.393 1.408 2.1 2.1 0 0 1-1.129.824v.025a1.319 1.319 0 0 1 .938.6 2.57 2.57 0 0 1 .381 1.325q.037.723.063 1.1a6.021 6.021 0 0 0 .07.634 1.93 1.93 0 0 0 .114.418 1.228 1.228 0 0 0 .184.3h-1.42a.83.83 0 0 1-.178-.431q-.038-.266-.089-1-.013-.228-.013-.292a2.758 2.758 0 0 0-.475-1.649 1.61 1.61 0 0 0-1.275-.469h-3.513v3.843h-1.344zm5.1 4.045a2.176 2.176 0 0 0 .793-.127 1.283 1.283 0 0 0 .508-.336 1.249 1.249 0 0 0 .26-.456 1.744 1.744 0 0 0 .076-.514 1.4 1.4 0 0 0-.406-1.059 1.665 1.665 0 0 0-1.192-.387h-3.792v2.879z"/>
                <path data-name="패스 1030" d="M59.498 23.83H55.06l-1.154 2.638H52.46l4.1-9.055h1.534l4.1 9.055H60.66zm-2.232-5.174-1.7 4.008h3.437z"/>
                <path data-name="패스 1031" d="M64.537 19.265h-.025v7.2h-1.344V17.41h1.56l5.821 7.2h.025v-7.2h1.344v9.055h-1.56z"/>
                <path data-name="패스 1032" d="M73.921 17.413h4.591a3.654 3.654 0 0 1 2.968 1.179 4.858 4.858 0 0 1 .989 3.222 7.06 7.06 0 0 1-.222 1.813 4.362 4.362 0 0 1-.691 1.477 3.225 3.225 0 0 1-1.211 1 3.97 3.97 0 0 1-1.757.361h-4.667zm4.6 7.888a2.6 2.6 0 0 0 1.306-.3 2.086 2.086 0 0 0 .8-.793 3.46 3.46 0 0 0 .387-1.091 7.2 7.2 0 0 0 .108-1.281 5.683 5.683 0 0 0-.127-1.23 2.931 2.931 0 0 0-.444-1.034 2.152 2.152 0 0 0-.881-.729 3.276 3.276 0 0 0-1.4-.266h-3.005v6.721z"/>
                <path data-name="패스 1033" d="M88.303 17.413h1.344v7.888h5.5v1.167h-6.848z"/>
                <path data-name="패스 1034" d="M96.351 17.413h1.344v9.055h-1.344z"/>
                <path data-name="패스 1035" d="M100.337 23.487a1.877 1.877 0 0 0 .266.983 1.875 1.875 0 0 0 .666.634 2.929 2.929 0 0 0 .919.33 5.764 5.764 0 0 0 1.065.1 3.41 3.41 0 0 0 1.776-.406 1.259 1.259 0 0 0 .672-1.129 1.04 1.04 0 0 0-.425-.894 2.99 2.99 0 0 0-1.261-.45l-2.055-.342a6.345 6.345 0 0 1-.938-.216 3.407 3.407 0 0 1-.843-.4 2.031 2.031 0 0 1-.653-.7 2.076 2.076 0 0 1-.254-1.059 2.411 2.411 0 0 1 .958-2 4.238 4.238 0 0 1 2.669-.749 6.39 6.39 0 0 1 1.389.146 3.977 3.977 0 0 1 1.2.476 2.588 2.588 0 0 1 .881.881 2.888 2.888 0 0 1 .386 1.338h-1.344a2.232 2.232 0 0 0-.177-.6 1.561 1.561 0 0 0-.418-.52 2.212 2.212 0 0 0-.805-.4 4.616 4.616 0 0 0-1.287-.152 3.463 3.463 0 0 0-.761.083 2.241 2.241 0 0 0-.672.266 1.478 1.478 0 0 0-.488.469 1.2 1.2 0 0 0-.184.666.962.962 0 0 0 .342.748 2.338 2.338 0 0 0 1.142.444l2.219.381h.025q.444.088.843.2a3.621 3.621 0 0 1 .837.355 2.125 2.125 0 0 1 .729.685 1.912 1.912 0 0 1 .292 1.084 2.783 2.783 0 0 1-.33 1.4 2.576 2.576 0 0 1-.894.926 3.9 3.9 0 0 1-1.25.495 6.831 6.831 0 0 1-1.42.146 7.288 7.288 0 0 1-1.554-.159 4.13 4.13 0 0 1-1.319-.526 2.69 2.69 0 0 1-.938-1 3.1 3.1 0 0 1-.349-1.529z"/>
                <path data-name="패스 1036" d="M110.685 18.579h-3.424v-1.167h8.192v1.167h-3.424v7.888h-1.344z"/>
            </g>
        </g>
    </g>
</svg>
