<svg xmlns="http://www.w3.org/2000/svg" width="24" height="24" viewBox="0 0 24 24">
    <defs>
        <style>
            .cls-2{fill:#fff}
        </style>
    </defs>
    <g id="Group_2776" data-name="Group 2776" transform="translate(-78 -354)">
        <rect id="Rectangle_1840" data-name="Rectangle 1840" width="24" height="24" rx="4" transform="translate(78 354)" style="fill:#24c73b"/>
        <g id="Group_2775" data-name="Group 2775" transform="translate(57.137 239.085)">
            <path id="Rectangle_1841" data-name="Rectangle 1841" class="cls-2" d="M4.027 0h4.131a4.027 4.027 0 0 1-4.027 4.027H0A4.027 4.027 0 0 1 4.027 0z" transform="translate(28.314 119.415)"/>
            <path id="Path_1038" data-name="Path 1038" class="cls-2" d="M38.1 127.833H25.863v3.514a5.8 5.8 0 0 0 11.293 1.86h.944a2.427 2.427 0 0 0 2.427-2.427v-.521a2.427 2.427 0 0 0-2.427-2.426zm1.291 2.843a1.384 1.384 0 0 1-1.383 1.384h-.591a5.773 5.773 0 0 0 .048-.712V129h.543a1.383 1.383 0 0 1 1.383 1.384z" transform="translate(0 -2.733)"/>
        </g>
    </g>
</svg>
